<svg width="24" height="24" viewBox="0 0 24 24" fill="none" xmlns="http://www.w3.org/2000/svg">
<path d="M5 20C4.45 20 3.97917 19.8042 3.5875 19.4125C3.19583 19.0208 3 18.55 3 18V6C3 5.45 3.19583 4.97917 3.5875 4.5875C3.97917 4.19583 4.45 4 5 4H19C19.55 4 20.0208 4.19583 20.4125 4.5875C20.8042 4.97917 21 5.45 21 6V18C21 18.55 20.8042 19.0208 20.4125 19.4125C20.0208 19.8042 19.55 20 19 20H5ZM5 18H19V8H5V18ZM8 12C7.71667 12 7.47917 11.9042 7.2875 11.7125C7.09583 11.5208 7 11.2833 7 11C7 10.7167 7.09583 10.4792 7.2875 10.2875C7.47917 10.0958 7.71667 10 8 10H16C16.2833 10 16.5208 10.0958 16.7125 10.2875C16.9042 10.4792 17 10.7167 17 11C17 11.2833 16.9042 11.5208 16.7125 11.7125C16.5208 11.9042 16.2833 12 16 12H8ZM8 16C7.71667 16 7.47917 15.9042 7.2875 15.7125C7.09583 15.5208 7 15.2833 7 15C7 14.7167 7.09583 14.4792 7.2875 14.2875C7.47917 14.0958 7.71667 14 8 14H12C12.2833 14 12.5208 14.0958 12.7125 14.2875C12.9042 14.4792 13 14.7167 13 15C13 15.2833 12.9042 15.5208 12.7125 15.7125C12.5208 15.9042 12.2833 16 12 16H8Z" fill="#3D3D3D" style="fill:#3D3D3D;fill:color(display-p3 0.2392 0.2392 0.2392);fill-opacity:1;"/>
</svg>
