<svg width="24" height="24" viewBox="0 0 24 24" fill="none" xmlns="http://www.w3.org/2000/svg">
<path d="M10 5C9.44772 5 9 5.44772 9 6V18C9 18.5523 9.44772 19 10 19H11C11.5523 19 12 19.4477 12 20C12 20.5523 11.5523 21 11 21H10C9.23164 21 8.53075 20.7111 8 20.2361C7.46924 20.7111 6.76835 21 6 21H5C4.44772 21 4 20.5523 4 20C4 19.4477 4.44772 19 5 19H6C6.55228 19 7 18.5523 7 18V6C7 5.44772 6.55228 5 6 5H5C4.44772 5 4 4.55228 4 4C4 3.44772 4.44772 3 5 3H6C6.76835 3 7.46924 3.28885 8 3.76389C8.53076 3.28885 9.23165 3 10 3H11C11.5523 3 12 3.44772 12 4C12 4.55228 11.5523 5 11 5H10Z" fill="#3D3D3D" style="fill:#3D3D3D;fill:color(display-p3 0.2392 0.2392 0.2392);fill-opacity:1;"/>
<path d="M11.2875 8.7125C11.4792 8.90417 11.7167 9 12 9C12.2833 9 12.5208 8.90417 12.7125 8.7125C12.9042 8.52083 13 8.28333 13 8C13 7.71667 12.9042 7.47917 12.7125 7.2875C12.5208 7.09583 12.2833 7 12 7C11.7167 7 11.4792 7.09583 11.2875 7.2875C11.0958 7.47917 11 7.71667 11 8C11 8.28333 11.0958 8.52083 11.2875 8.7125Z" fill="#3D3D3D" style="fill:#3D3D3D;fill:color(display-p3 0.2392 0.2392 0.2392);fill-opacity:1;"/>
<path d="M16 9C15.7167 9 15.4792 8.90417 15.2875 8.7125C15.0958 8.52083 15 8.28333 15 8C15 7.71667 15.0958 7.47917 15.2875 7.2875C15.4792 7.09583 15.7167 7 16 7C16.2833 7 16.5208 7.09583 16.7125 7.2875C16.9042 7.47917 17 7.71667 17 8C17 8.28333 16.9042 8.52083 16.7125 8.7125C16.5208 8.90417 16.2833 9 16 9Z" fill="#3D3D3D" style="fill:#3D3D3D;fill:color(display-p3 0.2392 0.2392 0.2392);fill-opacity:1;"/>
<path d="M19.2875 8.7125C19.4792 8.90417 19.7167 9 20 9C20.2833 9 20.5208 8.90417 20.7125 8.7125C20.9042 8.52083 21 8.28333 21 8C21 7.71667 20.9042 7.47917 20.7125 7.2875C20.5208 7.09583 20.2833 7 20 7C19.7167 7 19.4792 7.09583 19.2875 7.2875C19.0958 7.47917 19 7.71667 19 8C19 8.28333 19.0958 8.52083 19.2875 8.7125Z" fill="#3D3D3D" style="fill:#3D3D3D;fill:color(display-p3 0.2392 0.2392 0.2392);fill-opacity:1;"/>
<path d="M20 13C19.7167 13 19.4792 12.9042 19.2875 12.7125C19.0958 12.5208 19 12.2833 19 12C19 11.7167 19.0958 11.4792 19.2875 11.2875C19.4792 11.0958 19.7167 11 20 11C20.2833 11 20.5208 11.0958 20.7125 11.2875C20.9042 11.4792 21 11.7167 21 12C21 12.2833 20.9042 12.5208 20.7125 12.7125C20.5208 12.9042 20.2833 13 20 13Z" fill="#3D3D3D" style="fill:#3D3D3D;fill:color(display-p3 0.2392 0.2392 0.2392);fill-opacity:1;"/>
<path d="M19.2875 16.7125C19.4792 16.9042 19.7167 17 20 17C20.2833 17 20.5208 16.9042 20.7125 16.7125C20.9042 16.5208 21 16.2833 21 16C21 15.7167 20.9042 15.4792 20.7125 15.2875C20.5208 15.0958 20.2833 15 20 15C19.7167 15 19.4792 15.0958 19.2875 15.2875C19.0958 15.4792 19 15.7167 19 16C19 16.2833 19.0958 16.5208 19.2875 16.7125Z" fill="#3D3D3D" style="fill:#3D3D3D;fill:color(display-p3 0.2392 0.2392 0.2392);fill-opacity:1;"/>
<path d="M16 17C15.7167 17 15.4792 16.9042 15.2875 16.7125C15.0958 16.5208 15 16.2833 15 16C15 15.7167 15.0958 15.4792 15.2875 15.2875C15.4792 15.0958 15.7167 15 16 15C16.2833 15 16.5208 15.0958 16.7125 15.2875C16.9042 15.4792 17 15.7167 17 16C17 16.2833 16.9042 16.5208 16.7125 16.7125C16.5208 16.9042 16.2833 17 16 17Z" fill="#3D3D3D" style="fill:#3D3D3D;fill:color(display-p3 0.2392 0.2392 0.2392);fill-opacity:1;"/>
<path d="M11.2875 16.7125C11.4792 16.9042 11.7167 17 12 17C12.2833 17 12.5208 16.9042 12.7125 16.7125C12.9042 16.5208 13 16.2833 13 16C13 15.7167 12.9042 15.4792 12.7125 15.2875C12.5208 15.0958 12.2833 15 12 15C11.7167 15 11.4792 15.0958 11.2875 15.2875C11.0958 15.4792 11 15.7167 11 16C11 16.2833 11.0958 16.5208 11.2875 16.7125Z" fill="#3D3D3D" style="fill:#3D3D3D;fill:color(display-p3 0.2392 0.2392 0.2392);fill-opacity:1;"/>
<path d="M3.2875 16.7125C3.47917 16.9042 3.71667 17 4 17C4.28333 17 4.52083 16.9042 4.7125 16.7125C4.90417 16.5208 5 16.2833 5 16C5 15.7167 4.90417 15.4792 4.7125 15.2875C4.52083 15.0958 4.28333 15 4 15C3.71667 15 3.47917 15.0958 3.2875 15.2875C3.09583 15.4792 3 15.7167 3 16C3 16.2833 3.09583 16.5208 3.2875 16.7125Z" fill="#3D3D3D" style="fill:#3D3D3D;fill:color(display-p3 0.2392 0.2392 0.2392);fill-opacity:1;"/>
<path d="M4 13C3.71667 13 3.47917 12.9042 3.2875 12.7125C3.09583 12.5208 3 12.2833 3 12C3 11.7167 3.09583 11.4792 3.2875 11.2875C3.47917 11.0958 3.71667 11 4 11C4.28333 11 4.52083 11.0958 4.7125 11.2875C4.90417 11.4792 5 11.7167 5 12C5 12.2833 4.90417 12.5208 4.7125 12.7125C4.52083 12.9042 4.28333 13 4 13Z" fill="#3D3D3D" style="fill:#3D3D3D;fill:color(display-p3 0.2392 0.2392 0.2392);fill-opacity:1;"/>
<path d="M3.2875 8.7125C3.47917 8.90417 3.71667 9 4 9C4.28333 9 4.52083 8.90417 4.7125 8.7125C4.90417 8.52083 5 8.28333 5 8C5 7.71667 4.90417 7.47917 4.7125 7.2875C4.52083 7.09583 4.28333 7 4 7C3.71667 7 3.47917 7.09583 3.2875 7.2875C3.09583 7.47917 3 7.71667 3 8C3 8.28333 3.09583 8.52083 3.2875 8.7125Z" fill="#3D3D3D" style="fill:#3D3D3D;fill:color(display-p3 0.2392 0.2392 0.2392);fill-opacity:1;"/>
</svg>
