<svg width="24" height="24" viewBox="0 0 24 24" fill="none" xmlns="http://www.w3.org/2000/svg">
<path d="M6.17503 14.9L5.37503 17.125C5.30836 17.3083 5.20003 17.45 5.05003 17.55C4.90003 17.65 4.73336 17.7 4.55003 17.7C4.23336 17.7 3.98753 17.5708 3.81253 17.3125C3.63753 17.0542 3.60836 16.7833 3.72503 16.5L7.17503 7.3C7.2417 7.11666 7.3542 6.97083 7.51253 6.8625C7.67086 6.75416 7.8417 6.7 8.02503 6.7H8.72503C8.90836 6.7 9.08336 6.75416 9.25003 6.8625C9.4167 6.97083 9.53336 7.11666 9.60003 7.3L13.05 16.525C13.1667 16.8083 13.1334 17.075 12.95 17.325C12.7667 17.575 12.525 17.7 12.225 17.7C12.0417 17.7 11.875 17.6458 11.725 17.5375C11.575 17.4292 11.4667 17.2833 11.4 17.1L10.625 14.9H6.17503ZM6.75003 13.3H10.025L8.42503 8.75H8.32503L6.75003 13.3ZM16.625 17.95C15.775 17.95 15.1 17.7208 14.6 17.2625C14.1 16.8042 13.85 16.2 13.85 15.45C13.85 14.7167 14.1375 14.1125 14.7125 13.6375C15.2875 13.1625 16.025 12.925 16.925 12.925C17.3084 12.925 17.6834 12.9583 18.05 13.025C18.4167 13.0917 18.7334 13.1833 19 13.3V13C19 12.5167 18.8292 12.125 18.4875 11.825C18.1459 11.525 17.6917 11.375 17.125 11.375C16.875 11.375 16.6292 11.4125 16.3875 11.4875C16.1459 11.5625 15.925 11.675 15.725 11.825C15.5084 11.9917 15.3042 12.05 15.1125 12C14.9209 11.95 14.7667 11.8583 14.65 11.725C14.5334 11.5917 14.475 11.4333 14.475 11.25C14.475 11.0667 14.5667 10.9083 14.75 10.775C15.0834 10.5083 15.4584 10.3125 15.875 10.1875C16.2917 10.0625 16.7167 10 17.15 10C18.3 10 19.1584 10.2708 19.725 10.8125C20.2917 11.3542 20.575 12.1667 20.575 13.25V16.925C20.575 17.1417 20.4959 17.325 20.3375 17.475C20.1792 17.625 19.9917 17.7 19.775 17.7C19.5584 17.7 19.375 17.6208 19.225 17.4625C19.075 17.3042 19 17.1167 19 16.9V16.775H18.9C18.6667 17.1583 18.35 17.45 17.95 17.65C17.55 17.85 17.1084 17.95 16.625 17.95ZM16.925 16.6C17.5084 16.6 18.0042 16.4 18.4125 16C18.8209 15.6 19.025 15.1333 19.025 14.6C18.7917 14.4667 18.5125 14.3625 18.1875 14.2875C17.8625 14.2125 17.5417 14.175 17.225 14.175C16.6917 14.175 16.275 14.2917 15.975 14.525C15.675 14.7583 15.525 15.0667 15.525 15.45C15.525 15.7833 15.6584 16.0583 15.925 16.275C16.1917 16.4917 16.525 16.6 16.925 16.6Z" fill="#3D3D3D" style="fill:#3D3D3D;fill:color(display-p3 0.2392 0.2392 0.2392);fill-opacity:1;"/>
</svg>
